<?xml version="1.0" encoding="iso-8859-1"?>
<!-- Generator: Adobe Illustrator 24.2.0, SVG Export Plug-In . SVG Version: 6.00 Build 0)  -->
<svg version="1.1" id="&#xB808;&#xC774;&#xC5B4;_1" xmlns="http://www.w3.org/2000/svg" xmlns:xlink="http://www.w3.org/1999/xlink"
	 x="0px" y="0px" viewBox="0 0 1050 1050" style="enable-background:new 0 0 1050 1050;" xml:space="preserve">
<g>
	<linearGradient id="SVGID_1_" gradientUnits="userSpaceOnUse" x1="1049.9272" y1="517.2316" x2="0.6668" y2="536.1372">
		<stop  offset="0" style="stop-color:#00D2D8"/>
		<stop  offset="1" style="stop-color:#04E889"/>
	</linearGradient>
	<path style="fill:url(#SVGID_1_);" d="M933.736,845.905c-7.737,0-15.163-2.853-20.915-8.032l-50.42-45.662
		c-37.594,15.999-77.446,24.093-118.756,24.093H306.354c-81.459,0-158.244-31.924-216.212-89.892
		C32.174,668.443,0.25,591.658,0.25,510.199s31.924-158.244,89.892-216.212c57.967-57.968,134.753-89.892,216.212-89.892H413.68
		c16.72,0,30.274,13.554,30.274,30.274s-13.554,30.274-30.274,30.274H306.354c-135.4,0-245.556,110.156-245.556,245.556
		s110.156,245.556,245.556,245.556h437.292c38.774,0,75.941-8.901,110.471-26.454c11.188-5.69,24.734-3.881,34.041,4.548
		l9.683,8.768l-2.08-23.139c-0.863-9.589,2.888-19.017,10.102-25.394c52.962-46.816,83.339-113.839,83.339-183.885
		c0-135.4-110.156-245.556-245.556-245.556H615.679c-16.72,0-30.274-13.554-30.274-30.274s13.554-30.274,30.274-30.274h127.967
		c81.459,0,158.244,31.924,216.212,89.892c57.967,57.967,89.892,134.753,89.892,216.212c0,82.21-33.478,161.029-92.357,218.622
		l7.463,83.039c1.152,12.969-5.626,25.048-17.267,30.805C943.393,844.764,938.561,845.905,933.736,845.905z"/>
	<g>
		<path style="fill:#FFFFFF;" d="M261.46,563.014c-3.825-1.564-8.081-1.91-12.773-1.043c-2.435,0.35-4.822,1.133-7.168,2.346
			c-2.346,1.218-4.477,2.261-6.387,3.128c-3.479,1.564-7.429,2.782-11.861,3.65c-4.431,0.872-9.69,1.303-15.771,1.303
			c-4.692,0-9.213-0.782-13.555-2.346c-4.346-1.564-8.212-3.865-11.6-6.908c-3.389-3.039-6.085-6.864-8.081-11.47
			c-2-4.603-2.997-9.947-2.997-16.032v-49.528c0-6.081,0.997-11.424,2.997-16.031c1.996-4.603,4.692-8.427,8.081-11.47
			c3.389-3.039,7.254-5.344,11.6-6.908c4.342-1.564,8.863-2.346,13.555-2.346c5.385,0,9.775,0.261,13.164,0.782
			c3.389,0.521,6.647,1.393,9.775,2.606c1.911,0.872,4.04,1.87,6.387,2.998c2.346,1.133,4.994,1.955,7.95,2.477
			c4.517,0.871,8.949,0.35,13.295-1.564c4.342-1.911,7.82-5.124,10.427-9.645c3.128-5.559,3.65-11.164,1.564-16.813
			c-2.085-5.646-5.824-10.382-11.209-14.207c-5.042-3.65-11.95-6.688-20.723-9.124c-8.777-2.432-18.989-3.649-30.629-3.649
			c-11.299,0-22.332,1.478-33.106,4.431c-10.777,2.957-20.378,7.69-28.805,14.207c-8.431,6.517-15.209,14.858-20.332,25.025
			c-5.128,10.166-7.69,22.463-7.69,36.885v54.221c0,14.427,2.562,26.719,7.69,36.885c5.124,10.166,11.901,18.507,20.332,25.025
			c8.427,6.517,18.028,11.254,28.805,14.207c10.773,2.954,21.807,4.432,33.106,4.432c10.077,0,20.243-1.348,30.499-4.04
			c10.252-2.692,19.03-6.993,26.328-12.903c4.517-3.65,7.601-8.168,9.254-13.555c1.65-5.385,0.823-10.773-2.477-16.163
			C268.498,567.535,265.281,564.578,261.46,563.014z"/>
		<path style="fill:#FFFFFF;" d="M340.705,409.476c-5.389-4.171-11.731-6.256-19.029-6.256c-7.299,0-13.645,2.085-19.03,6.256
			c-5.389,4.171-8.081,10.777-8.081,19.811v184.818h54.221V429.288C348.786,420.254,346.09,413.648,340.705,409.476z"/>
		<path style="fill:#FFFFFF;" d="M518.874,425.247c-8.777-7.559-18.682-12.944-29.717-16.162
			c-11.037-3.213-22.201-4.822-33.496-4.822H416.82c-7.818,0-14.336,0.741-19.549,2.215c-5.214,1.479-9.384,3.87-12.512,7.169
			c-3.13,3.303-5.345,7.559-6.649,12.773c-1.303,5.214-1.955,11.56-1.955,19.03v127.47c0,7.474,0.652,13.816,1.955,19.03
			c1.303,5.213,3.519,9.474,6.649,12.772c3.127,3.303,7.298,5.695,12.512,7.169c5.214,1.474,11.731,2.215,19.549,2.215h38.841
			c11.295,0,22.458-1.604,33.496-4.822c11.035-3.214,20.94-8.601,29.717-16.162c8.775-7.559,15.857-17.505,21.247-29.847
			c5.385-12.337,8.081-27.542,8.081-45.618v-16.944c0-18.072-2.696-33.277-8.081-45.619
			C534.731,442.758,527.649,432.807,518.874,425.247z M495.023,521.827c0,15.295-3.74,26.98-11.208,35.061
			c-7.474,8.081-17.379,12.121-29.717,12.121h-17.205c-2.956,0-4.951-0.476-5.994-1.434c-1.043-0.953-1.564-2.998-1.564-6.126
			V456.92c0-3.128,0.52-5.169,1.564-6.126c1.043-0.953,3.038-1.434,5.994-1.434h17.205c12.338,0,22.243,4.04,29.717,12.121
			c7.469,8.081,11.208,19.771,11.208,35.061V521.827z"/>
		<path style="fill:#FFFFFF;" d="M718.29,575.657c-1.654-2.171-3.825-3.91-6.517-5.214c-2.696-1.303-5.955-1.955-9.775-1.955H633.44
			c-2.956,0-4.952-0.476-5.996-1.434c-1.042-0.953-1.564-2.998-1.564-6.126V530.43h71.164c3.821,0,7.08-0.652,9.776-1.955
			c2.692-1.303,4.863-3.039,6.517-5.214c1.649-2.171,2.867-4.561,3.649-7.168c0.782-2.607,1.173-5.213,1.173-7.82
			s-0.392-5.254-1.173-7.951c-0.782-2.692-2.045-5.169-3.78-7.429c-1.738-2.256-3.909-4.081-6.516-5.474
			c-2.607-1.389-5.825-2.085-9.646-2.085h-71.164v-27.892c0-3.128,0.522-5.169,1.564-6.126c1.043-0.953,3.039-1.434,5.996-1.434
			h65.951c3.821,0,7.078-0.652,9.775-1.955c2.692-1.303,4.864-3.039,6.517-5.213c1.65-2.171,2.867-4.603,3.65-7.299
			c0.782-2.692,1.172-5.344,1.172-7.95c0-2.607-0.39-5.299-1.172-8.081c-0.783-2.778-2.046-5.299-3.78-7.56
			c-1.74-2.256-3.91-4.081-6.517-5.474c-2.607-1.389-5.824-2.085-9.645-2.085h-86.284c-7.819,0-14.337,0.741-19.551,2.215
			c-5.214,1.479-9.384,3.87-12.512,7.169c-3.129,3.303-5.344,7.559-6.647,12.773c-1.303,5.214-1.955,11.56-1.955,19.03v127.47
			c0,7.474,0.652,13.816,1.955,19.03c1.303,5.213,3.519,9.474,6.647,12.772c3.127,3.303,7.298,5.695,12.512,7.169
			c5.214,1.474,11.731,2.215,19.551,2.215h88.891c3.82,0,7.038-0.696,9.645-2.085c2.607-1.389,4.778-3.213,6.517-5.474
			c1.734-2.256,2.997-4.778,3.779-7.559c0.783-2.778,1.173-5.474,1.173-8.081s-0.39-5.255-1.173-7.951
			C721.157,580.263,719.939,577.832,718.29,575.657z"/>
		<path style="fill:#FFFFFF;" d="M880.296,530.951c9.384-5.906,16.984-13.51,22.809-22.809c5.821-9.295,8.733-20.202,8.733-32.715
			v-3.129c0-11.641-1.955-21.721-5.866-30.238c-3.909-8.513-9.344-15.596-16.292-21.245c-6.952-5.646-15.208-9.816-24.763-12.512
			c-9.56-2.692-19.987-4.04-31.282-4.04h-47.964c-7.819,0-14.337,0.741-19.551,2.215c-5.214,1.479-9.384,3.87-12.512,7.169
			c-3.129,3.303-5.344,7.559-6.647,12.773c-1.303,5.214-1.955,11.56-1.955,19.03v168.656h53.438v-70.121h33.366l39.101,70.121
			h58.913L880.296,530.951z M858.921,475.428c0,6.606-2.217,12.341-6.647,17.205c-4.432,4.867-11.079,7.298-19.942,7.298h-33.887
			v-43.272c0-3.128,0.522-5.169,1.564-6.126c1.043-0.953,3.039-1.434,5.996-1.434h26.328c8.863,0,15.51,2.435,19.942,7.298
			c4.431,4.868,6.647,10.603,6.647,17.205V475.428z"/>
		<path style="fill:#FFFFFF;" d="M353.269,343.234l-15.158-2.203c-2.01-0.292-3.747-1.554-4.645-3.375l-6.779-13.735
			c-2.263-4.586-8.802-4.586-11.065,0l-6.779,13.735c-0.899,1.821-2.636,3.083-4.645,3.375l-15.158,2.203
			c-5.061,0.735-7.081,6.954-3.419,10.524l10.968,10.691c1.454,1.417,2.118,3.46,1.774,5.461l-2.589,15.096
			c-0.864,5.04,4.426,8.884,8.952,6.504l13.557-7.128c1.797-0.945,3.945-0.945,5.742,0l13.557,7.128
			c4.526,2.38,9.816-1.464,8.952-6.504l-2.589-15.096c-0.343-2.001,0.32-4.044,1.774-5.461l10.968-10.691
			C360.35,350.188,358.33,343.969,353.269,343.234z"/>
	</g>
</g>
<g>
</g>
<g>
</g>
<g>
</g>
<g>
</g>
<g>
</g>
<g>
</g>
<g>
</g>
<g>
</g>
<g>
</g>
<g>
</g>
<g>
</g>
<g>
</g>
<g>
</g>
<g>
</g>
<g>
</g>
</svg>
